# xmcd CD database file
# Copyright (C) 1995-1998 Ti Kan
#
# Track frame offsets:
#	150
#	17942
#	34707
#	52012
#	72450
#	87740
#	108515
#	122190
#	146605
#	158710
#	171465
#
# Disc length: 2518 seconds
#
# Revision: 1
# Processed by: cddbd v1.4PL0 Copyright (c) Steve Scherf et al.
# Submitted via: CDex 1.30Release
#
DISCID=a409d40b
DTITLE=The Johnny O Band - The Johnny O Band
DYEAR=1900
DGENRE=Blues
TTITLE0=For The Love of a Woman
TTITLE1=Don't be Bashful
TTITLE2=Northstar
TTITLE3=Cold in Hand
TTITLE4=I Wonder Why
TTITLE5=Good Good Day
TTITLE6=6 Feet Under Ground
TTITLE7=Just the Blues
TTITLE8=One More Mile
TTITLE9=Copala
TTITLE10=Crosscut Saw
EXTD=ID3G:   0
EXTT0=
EXTT1=
EXTT2=
EXTT3=
EXTT4=
EXTT5=
EXTT6=
EXTT7=
EXTT8=
EXTT9=
EXTT10=
PLAYORDER=
